<svg width="156" height="156" viewBox="0 0 156 156" fill="none" xmlns="http://www.w3.org/2000/svg">
<path d="M30.3472 117.553C36.9361 112.514 44.3001 108.542 52.4393 105.635C60.5785 102.728 69.1053 101.274 78.0197 101.274C86.9341 101.274 95.4609 102.728 103.6 105.635C111.739 108.542 119.103 112.514 125.692 117.553C130.214 112.256 133.735 106.248 136.254 99.5303C138.773 92.8123 140.033 85.642 140.033 78.0196C140.033 60.8368 133.993 46.2056 121.913 34.126C109.834 22.0463 95.2025 16.0065 78.0197 16.0065C60.8369 16.0065 46.2057 22.0463 34.1261 34.126C22.0465 46.2056 16.0067 60.8368 16.0067 78.0196C16.0067 85.642 17.2663 92.8123 19.7856 99.5303C22.3049 106.248 25.8254 112.256 30.3472 117.553ZM78.0197 85.7712C70.3973 85.7712 63.9699 83.155 58.7375 77.9227C53.5052 72.6903 50.889 66.2629 50.889 58.6405C50.889 51.0181 53.5052 44.5907 58.7375 39.3583C63.9699 34.126 70.3973 31.5098 78.0197 31.5098C85.6421 31.5098 92.0695 34.126 97.3019 39.3583C102.534 44.5907 105.15 51.0181 105.15 58.6405C105.15 66.2629 102.534 72.6903 97.3019 77.9227C92.0695 83.155 85.6421 85.7712 78.0197 85.7712ZM78.0197 155.536C67.2966 155.536 57.2195 153.501 47.7883 149.431C38.3572 145.362 30.1534 139.839 23.1769 132.862C16.2005 125.886 10.6774 117.682 6.60782 108.251C2.53822 98.8198 0.503418 88.7426 0.503418 78.0196C0.503418 67.2965 2.53822 57.2194 6.60782 47.7882C10.6774 38.3571 16.2005 30.1533 23.1769 23.1768C30.1534 16.2003 38.3572 10.6773 47.7883 6.60769C57.2195 2.53809 67.2966 0.503284 78.0197 0.503284C88.7428 0.503284 98.8199 2.53809 108.251 6.60769C117.682 10.6773 125.886 16.2003 132.862 23.1768C139.839 30.1533 145.362 38.3571 149.432 47.7882C153.501 57.2194 155.536 67.2965 155.536 78.0196C155.536 88.7426 153.501 98.8198 149.432 108.251C145.362 117.682 139.839 125.886 132.862 132.862C125.886 139.839 117.682 145.362 108.251 149.431C98.8199 153.501 88.7428 155.536 78.0197 155.536Z" fill="#666666"/>
</svg>
