<svg width="24" height="20" viewBox="0 0 24 20" fill="none" xmlns="http://www.w3.org/2000/svg">
<path d="M19 11.1667V8.83335H23.6666V11.1667H19ZM20.4 19.3334L16.6666 16.5334L18.0666 14.6667L21.8 17.4667L20.4 19.3334ZM18.0666 5.33335L16.6666 3.46669L20.4 0.666687L21.8 2.53335L18.0666 5.33335ZM3.83331 18.1667V13.5H2.66665C2.02498 13.5 1.47567 13.2715 1.01873 12.8146C0.561785 12.3577 0.333313 11.8084 0.333313 11.1667V8.83335C0.333313 8.19169 0.561785 7.64238 1.01873 7.18544C1.47567 6.72849 2.02498 6.50002 2.66665 6.50002H7.33331L13.1666 3.00002V17L7.33331 13.5H6.16665V18.1667H3.83331ZM14.3333 13.9084V6.09169C14.8583 6.55835 15.2812 7.1271 15.6021 7.79794C15.9229 8.46877 16.0833 9.2028 16.0833 10C16.0833 10.7972 15.9229 11.5313 15.6021 12.2021C15.2812 12.8729 14.8583 13.4417 14.3333 13.9084Z" fill="#1C1B1F"/>
</svg>
