<svg width="21" height="20" viewBox="0 0 21 20" fill="none" xmlns="http://www.w3.org/2000/svg">
<path d="M10.5 10C9.17087 10 8.03303 9.52678 7.0865 8.58025C6.13997 7.63372 5.66671 6.49587 5.66671 5.16671C5.66671 3.83754 6.13997 2.69969 7.0865 1.75317C8.03303 0.806638 9.17087 0.333374 10.5 0.333374C11.8292 0.333374 12.9671 0.806638 13.9136 1.75317C14.8601 2.69969 15.3334 3.83754 15.3334 5.16671C15.3334 6.49587 14.8601 7.63372 13.9136 8.58025C12.9671 9.52678 11.8292 10 10.5 10ZM0.833374 19.6667V16.2834C0.833374 15.5987 1.00959 14.9693 1.36202 14.3954C1.71445 13.8214 2.18268 13.3834 2.76671 13.0813C4.01532 12.457 5.28407 11.9888 6.57296 11.6766C7.86185 11.3644 9.17087 11.2084 10.5 11.2084C11.8292 11.2084 13.1382 11.3644 14.4271 11.6766C15.716 11.9888 16.9848 12.457 18.2334 13.0813C18.8174 13.3834 19.2856 13.8214 19.6381 14.3954C19.9905 14.9693 20.1667 15.5987 20.1667 16.2834V19.6667H0.833374Z" fill="#1C1B1F"/>
</svg>
