<svg width="27" height="20" viewBox="0 0 27 20" fill="none" xmlns="http://www.w3.org/2000/svg">
<path d="M0.208252 19.6666V16.2833C0.208252 15.5986 0.384467 14.9692 0.736898 14.3953C1.08933 13.8213 1.55756 13.3833 2.14159 13.0812C3.3902 12.4569 4.65895 11.9887 5.94784 11.6765C7.23672 11.3644 8.54575 11.2083 9.87492 11.2083C11.2041 11.2083 12.5131 11.3644 13.802 11.6765C15.0909 11.9887 16.3596 12.4569 17.6083 13.0812C18.1923 13.3833 18.6605 13.8213 19.0129 14.3953C19.3654 14.9692 19.5416 15.5986 19.5416 16.2833V19.6666H0.208252ZM21.9583 19.6666V16.0416C21.9583 15.1555 21.7116 14.3047 21.2181 13.489C20.7247 12.6734 20.0249 11.9736 19.1187 11.3896C20.1458 11.5104 21.1124 11.7168 22.0187 12.0088C22.9249 12.3008 23.7708 12.6583 24.5562 13.0812C25.2812 13.484 25.835 13.9321 26.2176 14.4255C26.6003 14.9189 26.7916 15.4576 26.7916 16.0416V19.6666H21.9583ZM9.87492 9.99998C8.54575 9.99998 7.40791 9.52672 6.46138 8.58019C5.51485 7.63366 5.04159 6.49581 5.04159 5.16665C5.04159 3.83748 5.51485 2.69963 6.46138 1.7531C7.40791 0.806577 8.54575 0.333313 9.87492 0.333313C11.2041 0.333313 12.3419 0.806577 13.2885 1.7531C14.235 2.69963 14.7083 3.83748 14.7083 5.16665C14.7083 6.49581 14.235 7.63366 13.2885 8.58019C12.3419 9.52672 11.2041 9.99998 9.87492 9.99998ZM21.9583 5.16665C21.9583 6.49581 21.485 7.63366 20.5385 8.58019C19.5919 9.52672 18.4541 9.99998 17.1249 9.99998C16.9034 9.99998 16.6214 9.97481 16.2791 9.92446C15.9367 9.87411 15.6548 9.81873 15.4333 9.75831C15.977 9.11387 16.3949 8.39894 16.6869 7.61352C16.9789 6.8281 17.1249 6.01248 17.1249 5.16665C17.1249 4.32081 16.9789 3.50519 16.6869 2.71977C16.3949 1.93435 15.977 1.21942 15.4333 0.57498C15.7152 0.474285 15.9971 0.408834 16.2791 0.378625C16.561 0.348417 16.843 0.333313 17.1249 0.333313C18.4541 0.333313 19.5919 0.806577 20.5385 1.7531C21.485 2.69963 21.9583 3.83748 21.9583 5.16665Z" fill="#1C1B1F"/>
</svg>
