<svg width="24" height="24" viewBox="0 0 24 24" fill="none" xmlns="http://www.w3.org/2000/svg">
<path d="M5.00004 14.3333H19V12H5.00004V14.3333ZM5.00004 10.8333H19V8.49998H5.00004V10.8333ZM5.00004 7.33331H19V4.99998H5.00004V7.33331ZM2.66671 19C2.02504 19 1.47574 18.7715 1.01879 18.3146C0.561846 17.8576 0.333374 17.3083 0.333374 16.6666V2.66665C0.333374 2.02498 0.561846 1.47567 1.01879 1.01873C1.47574 0.561785 2.02504 0.333313 2.66671 0.333313H21.3334C21.975 0.333313 22.5243 0.561785 22.9813 1.01873C23.4382 1.47567 23.6667 2.02498 23.6667 2.66665V23.6666L19 19H2.66671Z" fill="#1C1B1F"/>
</svg>
