<svg width="683" height="436" viewBox="0 0 683 436" fill="none" xmlns="http://www.w3.org/2000/svg">
<path d="M257.323 246.56C256.336 246.56 255.283 246.413 254.163 246.12C253.043 245.827 251.95 245.427 250.883 244.92C249.843 244.387 248.923 243.747 248.123 243L250.723 239C251.816 239.88 252.896 240.56 253.963 241.04C255.056 241.52 256.176 241.76 257.323 241.76C258.736 241.76 259.763 241.467 260.403 240.88C261.07 240.267 261.403 239.387 261.403 238.24C261.403 237.467 261.19 236.8 260.763 236.24C260.336 235.68 259.75 235.173 259.003 234.72C258.283 234.267 257.496 233.827 256.643 233.4C255.79 232.947 254.923 232.48 254.043 232C253.19 231.52 252.39 230.96 251.643 230.32C250.923 229.68 250.35 228.933 249.923 228.08C249.496 227.2 249.283 226.16 249.283 224.96C249.283 223.28 249.643 221.813 250.363 220.56C251.11 219.307 252.15 218.333 253.483 217.64C254.843 216.947 256.443 216.6 258.283 216.6C260.203 216.6 261.816 216.947 263.123 217.64C264.456 218.333 265.63 219.227 266.643 220.32L263.683 223.72C262.856 222.947 262.056 222.373 261.283 222C260.51 221.6 259.603 221.4 258.563 221.4C257.39 221.4 256.483 221.68 255.843 222.24C255.203 222.773 254.883 223.6 254.883 224.72C254.883 225.413 255.096 226.013 255.523 226.52C255.976 227.027 256.563 227.48 257.283 227.88C258.003 228.28 258.79 228.693 259.643 229.12C260.523 229.52 261.39 229.96 262.243 230.44C263.123 230.92 263.923 231.493 264.643 232.16C265.363 232.8 265.936 233.587 266.363 234.52C266.816 235.427 267.043 236.52 267.043 237.8C267.043 239.507 266.67 241.027 265.923 242.36C265.203 243.667 264.11 244.693 262.643 245.44C261.203 246.187 259.43 246.56 257.323 246.56ZM256.043 250.96V244.2H260.003V250.96H256.043ZM256.043 218.48V212.16H260.003V218.48H256.043Z" fill="black"/>
<g filter="url(#filter0_d_87_2)">
<rect width="637" height="344" rx="17" fill="white"/>
<rect x="7.5" y="7.5" width="622" height="329" rx="9.5" stroke="#FFAE4A" stroke-width="15"/>
</g>
<g filter="url(#filter1_d_87_2)">
<mask id="mask0_87_2" style="mask-type:alpha" maskUnits="userSpaceOnUse" x="414" y="167" width="269" height="269">
<rect x="683" y="436" width="268.674" height="268.674" transform="rotate(-180 683 436)" fill="#D9D9D9"/>
</mask>
<g mask="url(#mask0_87_2)">
<path d="M593.442 200.91V290.468H649.416L548.663 413.61L447.91 290.468H503.884V200.91L593.442 200.91Z" fill="#FF8C00"/>
</g>
</g>
<ellipse cx="318.5" cy="171.5" rx="122.5" ry="118.5" fill="#FF9615" fill-opacity="0.84"/>
<mask id="mask1_87_2" style="mask-type:alpha" maskUnits="userSpaceOnUse" x="213" y="67" width="213" height="214">
<rect x="213.23" y="67.9302" width="212.727" height="212.727" fill="#D9D9D9"/>
</mask>
<g mask="url(#mask1_87_2)">
<path d="M310.953 254.066V235.009C303.123 233.237 296.365 229.839 290.677 224.816C284.99 219.794 280.816 212.703 278.157 203.544L294.555 196.896C296.771 203.987 300.058 209.379 304.416 213.072C308.774 216.765 314.498 218.612 321.589 218.612C327.646 218.612 332.779 217.245 336.99 214.512C341.2 211.779 343.305 207.532 343.305 201.771C343.305 196.6 341.68 192.501 338.43 189.473C335.18 186.444 327.646 183.01 315.828 179.169C303.123 175.18 294.407 170.416 289.68 164.876C284.953 159.336 282.589 152.578 282.589 144.6C282.589 134.998 285.691 127.538 291.896 122.22C298.1 116.902 304.453 113.873 310.953 113.135V94.521H328.68V113.135C336.066 114.316 342.16 117.012 346.961 121.223C351.762 125.433 355.271 130.566 357.487 136.623L341.089 143.714C339.316 138.987 336.805 135.441 333.555 133.078C330.305 130.714 325.873 129.532 320.259 129.532C313.759 129.532 308.811 130.973 305.413 133.853C302.015 136.734 300.316 140.316 300.316 144.6C300.316 149.475 302.532 153.316 306.964 156.123C311.396 158.93 319.078 161.885 330.009 164.987C340.203 167.941 347.921 172.632 353.166 179.058C358.41 185.484 361.032 192.907 361.032 201.328C361.032 211.816 357.93 219.794 351.725 225.26C345.521 230.725 337.839 234.123 328.68 235.453V254.066H310.953Z" fill="white"/>
</g>
<defs>
<filter id="filter0_d_87_2" x="0" y="0" width="646" height="356" filterUnits="userSpaceOnUse" color-interpolation-filters="sRGB">
<feFlood flood-opacity="0" result="BackgroundImageFix"/>
<feColorMatrix in="SourceAlpha" type="matrix" values="0 0 0 0 0 0 0 0 0 0 0 0 0 0 0 0 0 0 127 0" result="hardAlpha"/>
<feMorphology radius="1" operator="dilate" in="SourceAlpha" result="effect1_dropShadow_87_2"/>
<feOffset dx="5" dy="8"/>
<feGaussianBlur stdDeviation="1.5"/>
<feComposite in2="hardAlpha" operator="out"/>
<feColorMatrix type="matrix" values="0 0 0 0 0 0 0 0 0 0 0 0 0 0 0 0 0 0 0.26 0"/>
<feBlend mode="normal" in2="BackgroundImageFix" result="effect1_dropShadow_87_2"/>
<feBlend mode="normal" in="SourceGraphic" in2="effect1_dropShadow_87_2" result="shape"/>
</filter>
<filter id="filter1_d_87_2" x="447.91" y="200.91" width="210.506" height="224.701" filterUnits="userSpaceOnUse" color-interpolation-filters="sRGB">
<feFlood flood-opacity="0" result="BackgroundImageFix"/>
<feColorMatrix in="SourceAlpha" type="matrix" values="0 0 0 0 0 0 0 0 0 0 0 0 0 0 0 0 0 0 127 0" result="hardAlpha"/>
<feOffset dx="5" dy="8"/>
<feGaussianBlur stdDeviation="2"/>
<feComposite in2="hardAlpha" operator="out"/>
<feColorMatrix type="matrix" values="0 0 0 0 0 0 0 0 0 0 0 0 0 0 0 0 0 0 0.25 0"/>
<feBlend mode="normal" in2="BackgroundImageFix" result="effect1_dropShadow_87_2"/>
<feBlend mode="normal" in="SourceGraphic" in2="effect1_dropShadow_87_2" result="shape"/>
</filter>
</defs>
</svg>
