<svg width="40" height="27" viewBox="0 0 40 27" fill="none" xmlns="http://www.w3.org/2000/svg">
<path d="M20.8125 13.4188C21.5979 12.5521 22.2005 11.5635 22.6203 10.4531C23.0401 9.34271 23.25 8.19167 23.25 7C23.25 5.80833 23.0401 4.65729 22.6203 3.54688C22.2005 2.43646 21.5979 1.44792 20.8125 0.58125C22.4375 0.797917 23.7917 1.51562 24.875 2.73438C25.9583 3.95312 26.5 5.375 26.5 7C26.5 8.625 25.9583 10.0469 24.875 11.2656C23.7917 12.4844 22.4375 13.2021 20.8125 13.4188ZM29.75 26.5V21.625C29.75 20.65 29.5333 19.7224 29.1 18.8422C28.6667 17.962 28.0979 17.1833 27.3938 16.5063C28.775 16.9938 30.0547 17.6234 31.2328 18.3953C32.4109 19.1672 33 20.2437 33 21.625V26.5H29.75ZM33 15.125V11.875H29.75V8.625H33V5.375H36.25V8.625H39.5V11.875H36.25V15.125H33ZM13.5 13.5C11.7125 13.5 10.1823 12.8635 8.90938 11.5906C7.63646 10.3177 7 8.7875 7 7C7 5.2125 7.63646 3.68229 8.90938 2.40938C10.1823 1.13646 11.7125 0.5 13.5 0.5C15.2875 0.5 16.8177 1.13646 18.0906 2.40938C19.3635 3.68229 20 5.2125 20 7C20 8.7875 19.3635 10.3177 18.0906 11.5906C16.8177 12.8635 15.2875 13.5 13.5 13.5ZM0.5 26.5V21.95C0.5 21.0292 0.736979 20.1828 1.21094 19.4109C1.6849 18.6391 2.31458 18.05 3.1 17.6438C4.77917 16.8042 6.48542 16.1745 8.21875 15.7547C9.95208 15.3349 11.7125 15.125 13.5 15.125C15.2875 15.125 17.0479 15.3349 18.7812 15.7547C20.5146 16.1745 22.2208 16.8042 23.9 17.6438C24.6854 18.05 25.3151 18.6391 25.7891 19.4109C26.263 20.1828 26.5 21.0292 26.5 21.95V26.5H0.5Z" fill="#1C1B1F"/>
</svg>
