<svg width="45" height="46" viewBox="0 0 45 46" fill="none" xmlns="http://www.w3.org/2000/svg">
<path d="M31.875 6.49991C34.703 8.13276 37.0555 10.4759 38.6997 13.2973C40.3438 16.1188 41.2226 19.3207 41.2489 22.5862C41.2753 25.8516 40.4484 29.0673 38.85 31.915C37.2517 34.7626 34.9373 37.1434 32.1361 38.8218C29.3348 40.5001 26.1438 41.4177 22.8789 41.4838C19.6141 41.5499 16.3885 40.7621 13.5217 39.1985C10.6548 37.6349 8.24601 35.3496 6.53375 32.569C4.82149 29.7884 3.86514 26.6087 3.75938 23.3449L3.75 22.7374L3.75938 22.1299C3.86438 18.8918 4.80665 15.7361 6.49432 12.9705C8.182 10.205 10.5575 7.92388 13.3892 6.34969C16.2209 4.77549 19.4121 3.9619 22.6519 3.98823C25.8916 4.01456 29.0693 4.8799 31.875 6.49991ZM22.5 11.4874C22.0408 11.4875 21.5975 11.6561 21.2543 11.9612C20.9111 12.2664 20.6919 12.6869 20.6381 13.143L20.625 13.3624V22.7374L20.6419 22.983C20.6846 23.3083 20.812 23.6167 21.0113 23.8774L21.1744 24.0649L26.7994 29.6899L26.9756 29.8437C27.3044 30.0988 27.7088 30.2373 28.125 30.2373C28.5412 30.2373 28.9456 30.0988 29.2744 29.8437L29.4506 29.688L29.6062 29.5118C29.8614 29.183 29.9998 28.7786 29.9998 28.3624C29.9998 27.9462 29.8614 27.5419 29.6062 27.213L29.4506 27.0368L24.375 21.9593V13.3624L24.3619 13.143C24.3081 12.6869 24.0889 12.2664 23.7457 11.9612C23.4025 11.6561 22.9592 11.4875 22.5 11.4874Z" fill="black"/>
</svg>
