<svg width="40" height="29" viewBox="0 0 40 29" fill="none" xmlns="http://www.w3.org/2000/svg">
<path d="M0.751953 28.7795V23.8736C0.751953 22.8807 1.00747 21.9682 1.5185 21.1359C2.02953 20.3037 2.70847 19.6685 3.55531 19.2305C5.36582 18.3253 7.20552 17.6463 9.07443 17.1937C10.9433 16.7411 12.8414 16.5148 14.7688 16.5148C16.6961 16.5148 18.5942 16.7411 20.4631 17.1937C22.332 17.6463 24.1717 18.3253 25.9822 19.2305C26.8291 19.6685 27.508 20.3037 28.019 21.1359C28.53 21.9682 28.7856 22.8807 28.7856 23.8736V28.7795H0.751953ZM32.2898 28.7795V23.5232C32.2898 22.2383 31.932 21.0045 31.2166 19.8218C30.5012 18.6392 29.4864 17.6244 28.1723 16.7776C29.6616 16.9528 31.0633 17.2521 32.3774 17.6755C33.6914 18.0989 34.9179 18.6173 36.0568 19.2305C37.108 19.8145 37.9111 20.4643 38.4659 21.1797C39.0208 21.8952 39.2982 22.6763 39.2982 23.5232V28.7795H32.2898ZM14.7688 14.7627C12.8414 14.7627 11.1916 14.0764 9.81907 12.7039C8.4466 11.3315 7.76036 9.68156 7.76036 7.75425C7.76036 5.82694 8.4466 4.17705 9.81907 2.80457C11.1916 1.43209 12.8414 0.74585 14.7688 0.74585C16.6961 0.74585 18.346 1.43209 19.7184 2.80457C21.0909 4.17705 21.7772 5.82694 21.7772 7.75425C21.7772 9.68156 21.0909 11.3315 19.7184 12.7039C18.346 14.0764 16.6961 14.7627 14.7688 14.7627ZM32.2898 7.75425C32.2898 9.68156 31.6035 11.3315 30.231 12.7039C28.8586 14.0764 27.2087 14.7627 25.2814 14.7627C24.9601 14.7627 24.5513 14.7262 24.0549 14.6531C23.5585 14.5801 23.1496 14.4998 22.8284 14.4122C23.6169 13.4778 24.2228 12.4411 24.6462 11.3023C25.0697 10.1634 25.2814 8.98072 25.2814 7.75425C25.2814 6.52778 25.0697 5.34511 24.6462 4.20625C24.2228 3.06738 23.6169 2.03072 22.8284 1.09627C23.2372 0.950261 23.6461 0.855356 24.0549 0.811553C24.4637 0.767751 24.8725 0.74585 25.2814 0.74585C27.2087 0.74585 28.8586 1.43209 30.231 2.80457C31.6035 4.17705 32.2898 5.82694 32.2898 7.75425Z" fill="#1C1B1F"/>
</svg>
