<svg width="30" height="38" viewBox="0 0 30 38" fill="none" xmlns="http://www.w3.org/2000/svg">
<path d="M15.0005 0.904297C18.7506 0.904373 22.0452 2.2134 24.9048 4.85059C27.7357 7.46144 29.1665 10.9719 29.1665 15.4375C29.1665 18.3594 28.0045 21.5852 25.6089 25.126C23.2674 28.5867 19.7359 32.3478 14.9995 36.4111C10.2635 32.348 6.73249 28.5865 4.39111 25.126C1.99554 21.5853 0.833496 18.3594 0.833496 15.4375C0.833524 10.9719 2.26435 7.46144 5.09521 4.85059C7.95489 2.21321 11.2502 0.904297 15.0005 0.904297ZM15.0005 10.9043C13.8585 10.9043 12.8682 11.3169 12.0571 12.1279C11.2461 12.939 10.8335 13.9293 10.8335 15.0713C10.8336 16.2131 11.2462 17.2027 12.0571 18.0137C12.8682 18.8247 13.8585 19.2373 15.0005 19.2373C16.1423 19.2372 17.1319 18.8247 17.9429 18.0137C18.7539 17.2027 19.1664 16.2131 19.1665 15.0713C19.1665 13.9293 18.7539 12.939 17.9429 12.1279C17.1319 11.317 16.1423 10.9044 15.0005 10.9043Z" fill="#FF8C00" stroke="#FF8C00"/>
</svg>
