<svg width="33" height="40" viewBox="0 0 33 40" fill="none" xmlns="http://www.w3.org/2000/svg">
<path d="M16.5253 19.7375C17.6035 19.7375 18.5265 19.3535 19.2944 18.5857C20.0622 17.8179 20.4461 16.8948 20.4461 15.8166C20.4461 14.7384 20.0622 13.8153 19.2944 13.0475C18.5265 12.2796 17.6035 11.8957 16.5253 11.8957C15.447 11.8957 14.524 12.2796 13.7562 13.0475C12.9883 13.8153 12.6044 14.7384 12.6044 15.8166C12.6044 16.8948 12.9883 17.8179 13.7562 18.5857C14.524 19.3535 15.447 19.7375 16.5253 19.7375ZM16.5253 39.3418C11.2648 34.8655 7.33573 30.7077 4.73816 26.8685C2.14058 23.0294 0.841797 19.4761 0.841797 16.2087C0.841797 11.3076 2.41831 7.40306 5.57134 4.49508C8.72438 1.58711 12.3757 0.133118 16.5253 0.133118C20.6749 0.133118 24.3262 1.58711 27.4792 4.49508C30.6322 7.40306 32.2087 11.3076 32.2087 16.2087C32.2087 19.4761 30.91 23.0294 28.3124 26.8685C25.7148 30.7077 21.7858 34.8655 16.5253 39.3418Z" fill="#1C1B1F"/>
</svg>
