<svg width="140" height="140" viewBox="0 0 140 140" fill="none" xmlns="http://www.w3.org/2000/svg">
<circle cx="70" cy="70" r="70" transform="matrix(-1 0 0 1 140 0)" fill="#666666" fill-opacity="0.4"/>
<path d="M105 84.5H108.5H111.5H118" stroke="#FF8C00"/>
<path d="M18.88 85L24.92 56.44H30.96C33.84 56.44 36.0267 57.2267 37.52 58.8C39.04 60.3467 39.8 62.5333 39.8 65.36C39.8 67.12 39.6267 68.9333 39.28 70.8C38.9333 72.64 38.4 74.4 37.68 76.08C36.96 77.76 36.0267 79.28 34.88 80.64C33.76 81.9733 32.4267 83.04 30.88 83.84C29.3333 84.6133 27.5467 85 25.52 85H18.88ZM26.36 79.84C27.4267 79.84 28.36 79.52 29.16 78.88C29.96 78.24 30.6533 77.4 31.24 76.36C31.8267 75.2933 32.2933 74.1467 32.64 72.92C33.0133 71.6667 33.28 70.4267 33.44 69.2C33.6 67.9733 33.68 66.88 33.68 65.92C33.68 64.4267 33.4133 63.3333 32.88 62.64C32.3467 61.92 31.5333 61.56 30.44 61.56H29.6L25.72 79.84H26.36ZM37.5375 85L49.7775 56.32H57.1375L57.4575 85H51.3375L51.4975 78.52H46.3775L43.8575 85H37.5375ZM48.2975 73.48H51.7775L52.0575 65.36C52.0842 64.72 52.1108 64.1067 52.1375 63.52C52.1642 62.9067 52.2042 62.2533 52.2575 61.56H52.1375C52.0308 62.2 51.8842 62.8133 51.6975 63.4C51.5375 63.9867 51.3508 64.6133 51.1375 65.28L48.2975 73.48ZM59.7784 85L65.8184 56.44H78.0984L77.0584 61.44H70.5384L69.1784 67.72H75.2584L74.1784 72.72H68.1384L66.5784 79.92H73.1384L72.0584 85H59.7784ZM73.8284 85L82.8284 70.52L80.2684 56.44H86.3084L87.3084 64.44L91.5484 56.44H97.7484L89.3484 70.44L92.3884 85H86.1484L85.0284 76.44L79.9884 85H73.8284ZM93.2203 85L93.8603 82L97.3403 80.64L101.54 60.8L98.6203 59.44L99.2203 56.44H111.5L110.86 59.44L107.3 60.8L103.1 80.64L106.1 82L105.46 85H93.2203Z" fill="#FF8C00"/>
<path d="M101 69H104.5H107.5H114" stroke="#FF8C00"/>
<path d="M104 65H107.5H110.5H117" stroke="#FF8C00"/>
<path d="M107 61H110.5H113.5H120" stroke="#FF8C00"/>
<path d="M109 57.0001H109.5L112.583 56.9004H116.105H123" stroke="#FF8C00"/>
</svg>
