<svg width="209" height="92" viewBox="0 0 209 92" fill="none" xmlns="http://www.w3.org/2000/svg">
<path d="M138 38L164 38" stroke="#FF8C00" stroke-width="2"/>
<path d="M138 30H154H162H170" stroke="#FF8C00" stroke-width="2"/>
<path d="M134 47H157" stroke="#FF8C00" stroke-width="2"/>
<line x1="132" y1="67" x2="164" y2="67" stroke="#FF8C00" stroke-width="2"/>
<line x1="144.991" y1="23.2998" x2="176.991" y2="22.9998" stroke="#FF8C00" stroke-width="2"/>
<path d="M0.808 68L10.472 22.304H20.136C24.744 22.304 28.2427 23.5627 30.632 26.08C33.064 28.5547 34.28 32.0533 34.28 36.576C34.28 39.392 34.0027 42.2933 33.448 45.28C32.8933 48.224 32.04 51.04 30.888 53.728C29.736 56.416 28.2427 58.848 26.408 61.024C24.616 63.1573 22.4827 64.864 20.008 66.144C17.5333 67.3813 14.6747 68 11.432 68H0.808ZM12.776 59.744C14.4827 59.744 15.976 59.232 17.256 58.208C18.536 57.184 19.6453 55.84 20.584 54.176C21.5227 52.4693 22.2693 50.6347 22.824 48.672C23.4213 46.6667 23.848 44.6827 24.104 42.72C24.36 40.7573 24.488 39.008 24.488 37.472C24.488 35.0827 24.0613 33.3333 23.208 32.224C22.3547 31.072 21.0533 30.496 19.304 30.496H17.96L11.752 59.744H12.776ZM30.66 68L50.244 22.112H62.02L62.532 68H52.74L52.996 57.632H44.804L40.772 68H30.66ZM47.876 49.568H53.444L53.892 36.576C53.9347 35.552 53.9773 34.5707 54.02 33.632C54.0627 32.6507 54.1267 31.6053 54.212 30.496H54.02C53.8493 31.52 53.6147 32.5013 53.316 33.44C53.06 34.3787 52.7613 35.3813 52.42 36.448L47.876 49.568ZM66.2455 68L75.9095 22.304H95.5575L93.8935 30.304H83.4615L81.2855 40.352H91.0135L89.2855 48.352H79.6215L77.1255 59.872H87.6215L85.8935 68H66.2455ZM88.7255 68L103.126 44.832L99.0295 22.304H108.694L110.294 35.104L117.078 22.304H126.998L113.558 44.704L118.422 68H108.438L106.646 54.304L98.5815 68H88.7255ZM119.752 68L120.776 63.2L126.345 61.024L133.065 29.28L128.393 27.104L129.353 22.304H149.001L147.977 27.104L142.281 29.28L135.561 61.024L140.361 63.2L139.337 68H119.752Z" fill="#FF8C00"/>
</svg>
